<svg id="Camada_2" data-name="Camada 2" xmlns="http://www.w3.org/2000/svg" viewBox="0 0 300.77 83.82"><defs><style>.cls-1{fill:#fbb91b;}.cls-2{fill:#e6930d;}.cls-3{fill:#ef791b;}.cls-4{fill:#e84223;}.cls-5{fill:#e8570e;}.cls-6{fill:#ef791a;}</style></defs><path class="cls-1" d="M49.07,87.81c-.63,0-1.15-.23-1.15-.51V50.88c0-.27.52-.5,1.15-.5s1.15.23,1.15.5V87.3C50.22,87.58,49.71,87.81,49.07,87.81Z" transform="translate(-19.2 -19.5)"/><path class="cls-1" d="M90.08,83.64c-.63,0-1.15-.17-1.15-.37V56.38c0-.21.52-.37,1.15-.37s1.15.16,1.15.37V83.27C91.23,83.47,90.72,83.64,90.08,83.64Z" transform="translate(-19.2 -19.5)"/><path class="cls-2" d="M25.65,95.69c-.64,0-1.15-.33-1.15-.73V42.19c0-.4.51-.73,1.15-.73s1.15.33,1.15.73V95C26.8,95.36,26.29,95.69,25.65,95.69Z" transform="translate(-19.2 -19.5)"/><path class="cls-1" d="M31.47,87.81c-.63,0-1.13-.23-1.13-.51V50.88c0-.27.5-.5,1.13-.5s1.13.23,1.13.5V87.3C32.6,87.58,32.1,87.81,31.47,87.81Z" transform="translate(-19.2 -19.5)"/><path class="cls-3" d="M37.17,89.24c-.62,0-1.13-.23-1.13-.51V48.42c0-.28.51-.51,1.13-.51s1.13.23,1.13.51V88.73C38.3,89,37.8,89.24,37.17,89.24Z" transform="translate(-19.2 -19.5)"/><path class="cls-4" d="M43.11,103.32c-.63,0-1.15-.22-1.15-.5V33.1c0-.28.52-.5,1.15-.5s1.16.22,1.16.5v69.72C44.27,103.1,43.75,103.32,43.11,103.32Z" transform="translate(-19.2 -19.5)"/><path class="cls-5" d="M20.35,79.31c-.64,0-1.15-.22-1.15-.5V55.5c0-.28.51-.5,1.15-.5s1.14.22,1.14.5V78.81C21.49,79.09,21,79.31,20.35,79.31Z" transform="translate(-19.2 -19.5)"/><path class="cls-4" d="M84,87.81c-.63,0-1.15-.23-1.15-.51V50.88c0-.27.52-.5,1.15-.5s1.15.23,1.15.5V87.3C85.16,87.58,84.65,87.81,84,87.81Z" transform="translate(-19.2 -19.5)"/><path class="cls-2" d="M60.59,95.69c-.64,0-1.15-.33-1.15-.73V42.19c0-.4.51-.73,1.15-.73s1.15.33,1.15.73V95C61.74,95.36,61.22,95.69,60.59,95.69Z" transform="translate(-19.2 -19.5)"/><path class="cls-1" d="M66.41,87.81c-.63,0-1.14-.23-1.14-.51V50.88c0-.27.51-.5,1.14-.5s1.13.23,1.13.5V87.3C67.54,87.58,67,87.81,66.41,87.81Z" transform="translate(-19.2 -19.5)"/><path class="cls-3" d="M72.22,92.39c-.62,0-1.13-.26-1.13-.59V44c0-.33.51-.6,1.13-.6s1.13.27,1.13.6V91.8C73.35,92.13,72.85,92.39,72.22,92.39Z" transform="translate(-19.2 -19.5)"/><path class="cls-1" d="M78.05,103.32c-.63,0-1.15-.22-1.15-.5V33.1c0-.28.52-.5,1.15-.5s1.16.22,1.16.5v69.72C79.21,103.1,78.69,103.32,78.05,103.32Z" transform="translate(-19.2 -19.5)"/><path class="cls-5" d="M55.29,79.31c-.64,0-1.15-.22-1.15-.5V55.5c0-.28.51-.5,1.15-.5s1.14.22,1.14.5V78.81C56.43,79.09,55.92,79.31,55.29,79.31Z" transform="translate(-19.2 -19.5)"/><path class="cls-6" d="M199.58,84.26C198.83,93.45,193.53,99,185.4,99h-.05c-8.13-.05-13.43-5.56-14.17-14.75-.27-3.23,0-40.25,0-44.47a4,4,0,0,1,4-4h0a4,4,0,0,1,4,4.06c-.1,15.78-.19,41.6,0,43.76.58,7.23,4.49,7.32,6.2,7.33h.05c1.72,0,5.62-.1,6.2-7.33.18-2.16.09-28,0-43.76a4,4,0,0,1,4-4.06h0a4,4,0,0,1,4,4C199.62,44,199.84,81,199.58,84.26Z" transform="translate(-19.2 -19.5)"/><path class="cls-6" d="M265.83,99.08c-11,0-12.89-6.45-13.06-10.3-.2-4.5-.09-24,0-34.54,0-3,0-5.28,0-6.23,0-7.73,5.62-12.89,13.07-12.89,8.23,0,13.06,4.8,13.06,11.47V56.9a4,4,0,1,1-8,0V47.48c0-2.84-1.52-4.14-5.06-4.27-3.28-.11-5.07,1.95-5.07,4.8,0,1,0,3.24,0,6.28-.05,10.42-.16,29.83,0,34.13.06,1.27,2.34,3.6,5.07,3.43s4.91-1.33,5.19-3.7c.42-3.52-.09-12.13-.09-12.22-.07-2.23,1.64-3.41,3.84-3.48a4,4,0,0,1,4.12,3.92c0,.36.26,9,0,13C278.47,95.68,271.85,99.08,265.83,99.08Z" transform="translate(-19.2 -19.5)"/><path class="cls-1" d="M288.66,99a4,4,0,0,1-4-4V23.54a4,4,0,1,1,8,0V94.92A4,4,0,0,1,288.66,99Z" transform="translate(-19.2 -19.5)"/><line class="cls-1" x1="283.11" y1="75.54" x2="283.11" y2="32.24"/><line class="cls-1" x1="283.11" y1="21.37" x2="283.11" y2="20.47"/><path class="cls-1" d="M319.83,41A4,4,0,0,1,315,43.9c-.58-.13-5.16-.94-8.69,4.88V95a4,4,0,1,1-8,0V40a4,4,0,0,1,4-4A4,4,0,0,1,305.82,38a14.91,14.91,0,0,1,11.17-2A4,4,0,0,1,319.83,41Z" transform="translate(-19.2 -19.5)"/><path class="cls-6" d="M165.28,94.65a4.05,4.05,0,0,1-4,4.06h0a4,4,0,0,1-4-4.11c.1-15.95.19-42,0-44.24-.58-7.29-4.49-7.39-6.2-7.4H151c-1.72,0-5.62.11-6.2,7.4-.18,2.19-.09,28.29,0,44.24a4,4,0,0,1-4,4.11h0l-.38,0h0l-.37,0h0a4,4,0,0,1-4-4.11c.1-15.95.19-42,0-44.24-.58-7.29-4.49-7.39-6.2-7.4h0c-1.72,0-5.62.11-6.2,7.4-.18,2.19-.09,28.29,0,44.24a4,4,0,0,1-4,4.11h0a3.91,3.91,0,0,1-2.32-.76,4,4,0,0,1-3-3.9V34.8a4,4,0,1,1,8,0v2.08a14,14,0,0,1,7.53-2.08h0a13.13,13.13,0,0,1,10.58,4.82A13.13,13.13,0,0,1,151,34.8h.05c8.13.05,13.43,5.62,14.17,14.91C165.53,53,165.3,90.39,165.28,94.65Z" transform="translate(-19.2 -19.5)"/><path class="cls-6" d="M233.62,85c-.61,5-2.69,9.27-5.58,11.49a14.05,14.05,0,0,1-8.6,2.88,15.13,15.13,0,0,1-4.89-.83c-4.18-1.43-7.19-4.46-8-8.12-1.34-5.77-.71-9.2-.64-9.56a4,4,0,0,1,4.7-3.05,3.86,3.86,0,0,1,3.15,4.54,9.34,9.34,0,0,0-.06,1.21,23.18,23.18,0,0,0,.65,5.17,4.22,4.22,0,0,0,2.89,2.52,6.27,6.27,0,0,0,5.86-.82c.78-.6,2.18-2.85,2.6-6.32.39-3.19-1-7.92-5.89-11.7-.8-.6-1.72-1.23-2.7-1.89-1.27-.86-2.7-1.84-4.11-3l-.19-.14a19.48,19.48,0,0,1-6.42-8.64c-.08-.22-.15-.44-.22-.68l-.06-.23a25,25,0,0,1-.61-8.44,16.83,16.83,0,0,1,2.41-8c3.47-5.14,11.36-7.28,17.21-5.17,4.15,1.5,7.09,4.58,7.87,8.26,1.23,5.79.55,9.2.46,9.57a4,4,0,0,1-4.75,3,3.87,3.87,0,0,1-3.07-4.59,10.1,10.1,0,0,0,.09-1.52,24,24,0,0,0-.56-4.88,4.22,4.22,0,0,0-2.85-2.57,6.87,6.87,0,0,0-5.94.81c-2.11,1.37-2.69,3.45-2.88,5.79-.07.84-.08,1.69-.09,2.55a9.86,9.86,0,0,0,.2,2.42v0a10.38,10.38,0,0,0,.36,1.24,2.54,2.54,0,0,0,.15.44,10.21,10.21,0,0,0,3.47,4.44l.15.12c1.14.94,2.47,1.87,4,2.89,1,.69,2.09,1.41,3.06,2.16C232.25,72.1,234.25,79.75,233.62,85Z" transform="translate(-19.2 -19.5)"/><path class="cls-6" d="M212.78,67.4l-.09-.06a17.78,17.78,0,0,1-6.33-8.58A19.48,19.48,0,0,0,212.78,67.4Z" transform="translate(-19.2 -19.5)"/><path class="cls-6" d="M206.08,57.85a17.94,17.94,0,0,1-.51-6.65A19.59,19.59,0,0,0,206.08,57.85Z" transform="translate(-19.2 -19.5)"/><path class="cls-6" d="M217.56,61.19a10.21,10.21,0,0,1-3.47-4.44A11.39,11.39,0,0,0,217.56,61.19Z" transform="translate(-19.2 -19.5)"/><path class="cls-6" d="M243.24,99.08c-2.13,0-3.86-2.26-3.86-5V43.26c0-2.78,1.73-5,3.86-5s3.85,2.26,3.85,5V94C247.09,96.82,245.36,99.08,243.24,99.08Z" transform="translate(-19.2 -19.5)"/><ellipse class="cls-6" cx="224.03" cy="9.4" rx="3.85" ry="3.89"/></svg>