<svg id="Camada_2" data-name="Camada 2" xmlns="http://www.w3.org/2000/svg" viewBox="0 0 72.03 70.73"><defs><style>.cls-1{fill:#fbb91b;}.cls-2{fill:#e6930d;}.cls-3{fill:#ef791b;}.cls-4{fill:#e84223;}.cls-5{fill:#e8570e;}</style></defs><path class="cls-1" d="M49.07,87.81c-.63,0-1.15-.23-1.15-.51V50.88c0-.27.52-.5,1.15-.5s1.15.23,1.15.5V87.3C50.22,87.58,49.71,87.81,49.07,87.81Z" transform="translate(-19.2 -32.6)"/><path class="cls-1" d="M90.08,83.64c-.63,0-1.15-.17-1.15-.37V56.38c0-.21.52-.37,1.15-.37s1.15.16,1.15.37V83.27C91.23,83.47,90.72,83.64,90.08,83.64Z" transform="translate(-19.2 -32.6)"/><path class="cls-2" d="M25.65,95.69c-.64,0-1.15-.33-1.15-.73V42.19c0-.4.51-.73,1.15-.73s1.15.33,1.15.73V95C26.8,95.36,26.29,95.69,25.65,95.69Z" transform="translate(-19.2 -32.6)"/><path class="cls-1" d="M31.47,87.81c-.63,0-1.13-.23-1.13-.51V50.88c0-.27.5-.5,1.13-.5s1.13.23,1.13.5V87.3C32.6,87.58,32.1,87.81,31.47,87.81Z" transform="translate(-19.2 -32.6)"/><path class="cls-3" d="M37.17,89.24c-.62,0-1.13-.23-1.13-.51V48.42c0-.28.51-.51,1.13-.51s1.13.23,1.13.51V88.73C38.3,89,37.8,89.24,37.17,89.24Z" transform="translate(-19.2 -32.6)"/><path class="cls-4" d="M43.11,103.32c-.63,0-1.15-.22-1.15-.5V33.1c0-.28.52-.5,1.15-.5s1.16.22,1.16.5v69.72C44.27,103.1,43.75,103.32,43.11,103.32Z" transform="translate(-19.2 -32.6)"/><path class="cls-5" d="M20.35,79.31c-.64,0-1.15-.22-1.15-.5V55.5c0-.28.51-.5,1.15-.5s1.14.22,1.14.5V78.81C21.49,79.09,21,79.31,20.35,79.31Z" transform="translate(-19.2 -32.6)"/><path class="cls-4" d="M84,87.81c-.63,0-1.15-.23-1.15-.51V50.88c0-.27.52-.5,1.15-.5s1.15.23,1.15.5V87.3C85.16,87.58,84.65,87.81,84,87.81Z" transform="translate(-19.2 -32.6)"/><path class="cls-2" d="M60.59,95.69c-.64,0-1.15-.33-1.15-.73V42.19c0-.4.51-.73,1.15-.73s1.15.33,1.15.73V95C61.74,95.36,61.22,95.69,60.59,95.69Z" transform="translate(-19.2 -32.6)"/><path class="cls-1" d="M66.41,87.81c-.63,0-1.14-.23-1.14-.51V50.88c0-.27.51-.5,1.14-.5s1.13.23,1.13.5V87.3C67.54,87.58,67,87.81,66.41,87.81Z" transform="translate(-19.2 -32.6)"/><path class="cls-3" d="M72.22,92.39c-.62,0-1.13-.26-1.13-.59V44c0-.33.51-.6,1.13-.6s1.13.27,1.13.6V91.8C73.35,92.13,72.85,92.39,72.22,92.39Z" transform="translate(-19.2 -32.6)"/><path class="cls-1" d="M78.05,103.32c-.63,0-1.15-.22-1.15-.5V33.1c0-.28.52-.5,1.15-.5s1.16.22,1.16.5v69.72C79.21,103.1,78.69,103.32,78.05,103.32Z" transform="translate(-19.2 -32.6)"/><path class="cls-5" d="M55.29,79.31c-.64,0-1.15-.22-1.15-.5V55.5c0-.28.51-.5,1.15-.5s1.14.22,1.14.5V78.81C56.43,79.09,55.92,79.31,55.29,79.31Z" transform="translate(-19.2 -32.6)"/></svg>